<svg id="Layer_1" data-name="Layer 1" xmlns="http://www.w3.org/2000/svg" xmlns:xlink="http://www.w3.org/1999/xlink" viewBox="0 0 496.41 82.99"><defs><style>.cls-1{fill:url(#linear-gradient);}.cls-2{fill:url(#linear-gradient-2);}.cls-3{fill:url(#linear-gradient-3);}.cls-4{fill:url(#linear-gradient-4);}.cls-5{fill:url(#linear-gradient-5);}.cls-6{fill:url(#linear-gradient-6);}.cls-7{fill:url(#linear-gradient-7);}.cls-8{fill:url(#linear-gradient-8);}.cls-9{fill:url(#linear-gradient-9);}.cls-10{fill:url(#linear-gradient-10);}.cls-11{fill:url(#linear-gradient-11);}</style><linearGradient id="linear-gradient" x1="-568.61" y1="271" x2="-460.36" y2="87.5" gradientUnits="userSpaceOnUse"><stop offset="0" stop-color="#0591b2"/><stop offset="1" stop-color="#fff"/></linearGradient><linearGradient id="linear-gradient-2" x1="-522.91" y1="297.96" x2="-414.67" y2="114.45" xlink:href="#linear-gradient"/><linearGradient id="linear-gradient-3" x1="-478.62" y1="324.09" x2="-370.37" y2="140.58" xlink:href="#linear-gradient"/><linearGradient id="linear-gradient-4" x1="-437.06" y1="348.6" x2="-328.82" y2="165.1" xlink:href="#linear-gradient"/><linearGradient id="linear-gradient-5" x1="-403.56" y1="368.36" x2="-295.31" y2="184.86" xlink:href="#linear-gradient"/><linearGradient id="linear-gradient-6" x1="-373.19" y1="386.28" x2="-264.94" y2="202.78" xlink:href="#linear-gradient"/><linearGradient id="linear-gradient-7" x1="-346.05" y1="402.29" x2="-237.8" y2="218.79" xlink:href="#linear-gradient"/><linearGradient id="linear-gradient-8" x1="-326.31" y1="413.94" x2="-218.06" y2="230.43" xlink:href="#linear-gradient"/><linearGradient id="linear-gradient-9" x1="-288.16" y1="436.44" x2="-179.91" y2="252.93" xlink:href="#linear-gradient"/><linearGradient id="linear-gradient-10" x1="-261.73" y1="452.03" x2="-153.48" y2="268.52" xlink:href="#linear-gradient"/><linearGradient id="linear-gradient-11" x1="-235.97" y1="467.22" x2="-127.73" y2="283.72" xlink:href="#linear-gradient"/></defs><path class="cls-1" d="M-505,167.64h0c-2.75-2.08-6.56-3.13-11.3-3.13a34.32,34.32,0,0,0-16.9,4.54,50.85,50.85,0,0,0-14.14,11.8,60.22,60.22,0,0,0-9.82,16.7,53.17,53.17,0,0,0-3.71,19.52c0,9.32,2.13,16.35,6.31,20.89s10.91,6.9,19.84,6.9h.25l.24-.06a26.47,26.47,0,0,0,8.86-4.32,48,48,0,0,0,7.94-7.25,48,48,0,0,0,6.18-8.85,29.43,29.43,0,0,0,2.9-7.49,13.79,13.79,0,0,1,2.14.39l1.83.51.6-1.81a9,9,0,0,0,.37-1.77,16,16,0,0,0,.1-1.79,9.17,9.17,0,0,0-1.86-6,6.76,6.76,0,0,0-5.4-2.43,40.22,40.22,0,0,0-6.09.59c-2.39.39-4.86.89-7.35,1.5s-4.85,1.28-7,2a30.17,30.17,0,0,0-5.3,2.15l-1.41.79.47,1.54a9,9,0,0,0,3.67,4.93,10.67,10.67,0,0,0,6,1.74,23.87,23.87,0,0,0,5-.55l2.06-.44a23.08,23.08,0,0,1-1.38,3.67,35.56,35.56,0,0,1-4,6.58,30.2,30.2,0,0,1-5.16,5.3,13.32,13.32,0,0,1-4.89,2.59,5.83,5.83,0,0,1-2.83-1.25,11,11,0,0,1-2.81-3.44,22.52,22.52,0,0,1-2.07-5.43,29.4,29.4,0,0,1-.78-7,57.17,57.17,0,0,1,3.07-19.32,55.81,55.81,0,0,1,9.81-16.66,42.26,42.26,0,0,1,9.28-8.68,15,15,0,0,1,8-2.82c3.17,0,3.17,1.34,3.17,2.32a6.28,6.28,0,0,1-1,3.59,17.06,17.06,0,0,1-4,3.82l-1,.73.21,1.22a9.13,9.13,0,0,0,2.51,4.86,10.61,10.61,0,0,0,4.62,2.82l1.09.33.84-.77A27.36,27.36,0,0,0-502.4,184a14.54,14.54,0,0,0,1.8-7.07A11.05,11.05,0,0,0-505,167.64Z" transform="translate(560.89 -164.51)"/><path class="cls-2" d="M-437.74,176.85a10.94,10.94,0,0,0-4.41-9.21h0c-2.76-2.08-6.56-3.13-11.31-3.13a33.31,33.31,0,0,0-11.49,2.05,40.93,40.93,0,0,0-10.42,5.69,51.3,51.3,0,0,0-8.9,8.56,56.46,56.46,0,0,0-7,10.83,61.18,61.18,0,0,0-4.52,12.45,57,57,0,0,0-1.61,13.42c0,8.88,2.21,15.76,6.55,20.45s10.82,7.14,19.14,7.14h.45l.41-.2a33.79,33.79,0,0,0,5.45-3.38,65.11,65.11,0,0,0,5.82-4.92c1.95-1.85,3.93-3.9,5.9-6.11s3.88-4.54,5.73-6.94l.54-.71-.16-.87a5.81,5.81,0,0,0-1.68-3l-1.36-1.36-1.41,1.31a120.37,120.37,0,0,1-13.3,10.81,33.73,33.73,0,0,1-9.12,4.76c-1.59-.48-2.88-1.74-3.95-3.83-1.29-2.52-1.94-6-1.94-10.27,0-12.62,4.27-25.17,12.7-37.3a36.13,36.13,0,0,1,3.88-4.72,27.45,27.45,0,0,1,4.25-3.6,21.58,21.58,0,0,1,4.25-2.28,10.38,10.38,0,0,1,3.74-.75c3.17,0,3.17,1.23,3.17,2.13a8.23,8.23,0,0,1-1.61,4.31,23.91,23.91,0,0,1-4.81,5.24l-.91.75.22,1.17a10.22,10.22,0,0,0,2.79,5.29,9.3,9.3,0,0,0,5.36,2.79l.88.14.69-.57a19.18,19.18,0,0,0,3.25-3.46,28.07,28.07,0,0,0,2.47-4,21.19,21.19,0,0,0,1.66-4.3A17.15,17.15,0,0,0-437.74,176.85Z" transform="translate(560.89 -164.51)"/><path class="cls-3" d="M-382.5,201.23a26,26,0,0,0,6.05-7.74,20.7,20.7,0,0,0,2.24-9.41,17,17,0,0,0-7-14.33c-6.06-4.55-15.4-6.08-27.87-4.37a84.29,84.29,0,0,0-9.62,1.87,76.58,76.58,0,0,0-8.93,2.85,38.62,38.62,0,0,0-7.29,3.67l-1,.66.1,1.17a11,11,0,0,0,.79,3.12,27.25,27.25,0,0,0,1.42,3,21.43,21.43,0,0,0,1.83,2.77,9.79,9.79,0,0,0,2.2,2.11l1.25.84,1.15-1a28.4,28.4,0,0,1,5.75-3.64c1.35-.66,2.77-1.3,4.26-1.9-.17.6-.33,1.17-.49,1.71-.46,1.56-1,3.14-1.51,4.69s-1.19,3.21-1.89,4.93-1.58,3.77-2.58,6.09l-5.59,13.25q-2.29,5.43-3.94,9.19l-2.63,6c-.65,1.49-1.2,2.73-1.63,3.69s-.77,1.65-1,2.14-.6,1.18-.86,1.77l-.41.93.51.88a22.6,22.6,0,0,0,4.86,6.08,15.2,15.2,0,0,0,6.37,3.14l2,.47.4-2c.56-2.83,1.22-5.64,2-8.35s1.68-5.6,2.69-8.53,2.2-6,3.49-9.15c1-2.46,2.15-5.08,3.39-7.81l0,0a7.34,7.34,0,0,0,2.24.29h.53c1.54,5.76,3,10.79,4.27,15a101.75,101.75,0,0,0,4.13,11.31,24.45,24.45,0,0,0,4.18,6.81,7.41,7.41,0,0,0,5.4,2.59,8.44,8.44,0,0,0,3.15-.66,15.31,15.31,0,0,0,2.81-1.51,15.35,15.35,0,0,0,2.4-2,10,10,0,0,0,1.69-2.36l.68-1.34-1.11-1a37.26,37.26,0,0,1-4.72-5.44,76.52,76.52,0,0,1-4.76-7.42c-1.53-2.69-3-5.52-4.29-8.43-1-2.12-1.82-4.22-2.57-6.28a38.24,38.24,0,0,0,8.57-2.68A35.23,35.23,0,0,0-382.5,201.23Zm-14.35-25.15h.14c1-.09,2-.14,3-.14,4.24,0,7.35.71,9.24,2.11a6.42,6.42,0,0,1,2.57,5.57,9.74,9.74,0,0,1-2,6,18.77,18.77,0,0,1-6.08,5.08,36.33,36.33,0,0,1-9.71,3.51,55.58,55.58,0,0,1-9.35,1.2c.82-1.75,1.66-3.5,2.51-5.23,1.33-2.72,2.62-5.28,3.83-7.61s2.29-4.35,3.22-6a27.1,27.1,0,0,1,1.9-3.12l.86-1.11Z" transform="translate(560.89 -164.51)"/><path class="cls-4" d="M-351.34,189.62l-.25,0a17.25,17.25,0,0,0-7.07,1.58,29.15,29.15,0,0,0-6.57,4.14,40,40,0,0,0-5.84,6,46.46,46.46,0,0,0-4.71,7.31,40.33,40.33,0,0,0-3.16,8.11,31.77,31.77,0,0,0-1.15,8.37,15.86,15.86,0,0,0,4.13,11c2.74,3,6.56,4.83,11.36,5.39l.34,0,.33-.08a28.3,28.3,0,0,0,10.28-5.08,47.13,47.13,0,0,0,9.67-9.76l1-1.3-1.07-1.22a19.43,19.43,0,0,0-1.76-1.76l-1.45-1.32-1.34,1.43c-1,1-2.12,2.21-3.39,3.48a35.22,35.22,0,0,1-3.92,3.38,24.07,24.07,0,0,1-4.29,2.56,9.65,9.65,0,0,1-4.14,1,1.37,1.37,0,0,1-.89-.24,2.86,2.86,0,0,1-.75-1.07,8.28,8.28,0,0,1-.52-2,16,16,0,0,1-.17-2.25c0-.37,0-.72,0-1.06a83.48,83.48,0,0,0,9.56-4.53,37.16,37.16,0,0,0,8.1-6,24,24,0,0,0,5.27-8,34,34,0,0,0,2.21-10.62l0-.77-.47-.6C-344.77,192.12-347.93,190.06-351.34,189.62ZM-363,214.14a34.34,34.34,0,0,1,4.12-6.21,20.52,20.52,0,0,1,4.66-4.11,16,16,0,0,1,1.76-.95,18.24,18.24,0,0,1-4.39,7.83A37.83,37.83,0,0,1-364.3,217C-363.9,216-363.46,215.06-363,214.14Z" transform="translate(560.89 -164.51)"/><path class="cls-5" d="M-296.92,198.59a12,12,0,0,0-2.1-1.31,13.76,13.76,0,0,0-2.69-1,11,11,0,0,0-2.71-.39h-1.26l-.55,1.13-.21.44-.15-.24a17.49,17.49,0,0,0-2.08-2.61,18.45,18.45,0,0,0-2.53-2.2,9.31,9.31,0,0,0-2.7-1.42l-.28-.08h-.3c-3,0-6.13,1.27-9.24,3.79a43.19,43.19,0,0,0-8,8.76,52.29,52.29,0,0,0-6,11.28,33.19,33.19,0,0,0-2.39,11.85,16,16,0,0,0,2.51,9.2,8.6,8.6,0,0,0,7.29,4h.18l.16,0a13.87,13.87,0,0,0,5.56-2.53,31.61,31.61,0,0,0,5.47-5c.76-.87,1.52-1.8,2.28-2.8,0,.47-.05.92-.05,1.36,0,7.79,4.43,9,7.07,9a14.58,14.58,0,0,0,3.71-.54,11.74,11.74,0,0,0,3.51-1.49l2.7-1.8-2.82-1.6a2.15,2.15,0,0,1-1-1.37,12.42,12.42,0,0,1-.47-3.75,27.51,27.51,0,0,1,.58-5.17,62.34,62.34,0,0,1,1.68-6.65c.74-2.39,1.64-4.92,2.67-7.5s2.2-5.26,3.43-7.82l.19-.41v-.45A3.35,3.35,0,0,0-296.92,198.59Zm-29,22.94a41.38,41.38,0,0,1,5.07-8.9,36.29,36.29,0,0,1,6.85-7.07,17.67,17.67,0,0,1,4.85-2.76c-.55,1.06-1.11,2.12-1.68,3.16-.8,1.5-1.6,2.93-2.37,4.29s-1.5,2.65-2.1,3.73a88.42,88.42,0,0,1-8.43,12.34,15.65,15.65,0,0,1-4.1,3.6A22.48,22.48,0,0,1-325.88,221.53Z" transform="translate(560.89 -164.51)"/><path class="cls-6" d="M-264.58,189.32a22.82,22.82,0,0,0-10.55,2.62,31.89,31.89,0,0,0-8.82,6.71,34.12,34.12,0,0,0-6.19,9.48,27.64,27.64,0,0,0-2.38,11.19,23.44,23.44,0,0,0,1.29,7.7,23.12,23.12,0,0,0,3.5,6.58,18.92,18.92,0,0,0,5.3,4.77,15.59,15.59,0,0,0,6.68,2.21l.26,0,.26,0a15.38,15.38,0,0,0,4.28-1.55,40.44,40.44,0,0,0,4.59-2.76,42.82,42.82,0,0,0,4.53-3.6,36.78,36.78,0,0,0,3.88-4.07l.44-.55v-.71a4.25,4.25,0,0,0-.49-1.93,4.3,4.3,0,0,0-1.24-1.55l-1.19-.9-1.2.89c-1.39,1-2.84,2-4.32,2.91s-2.95,1.72-4.32,2.41a33.79,33.79,0,0,1-3.8,1.64,19.12,19.12,0,0,1-2.25.64c-1.14-.93-1.76-3.38-1.76-7a29.85,29.85,0,0,1,2-10.8,30.26,30.26,0,0,1,5.77-9.38,24.8,24.8,0,0,1,5-4.35c2.16-1.37,3.34-1.49,3.71-1.47a2.29,2.29,0,0,1,.08.72c0,2.53-1.89,5.54-5.64,8.95l-1.27,1.16.95,1.43a8,8,0,0,0,2.57,2.44,6.06,6.06,0,0,0,7.16-.4,11.33,11.33,0,0,0,2.8-3.13,17,17,0,0,0,1.81-4.1,16.45,16.45,0,0,0,.7-4.75,11,11,0,0,0-3.27-8.42C-257.83,190.32-260.82,189.32-264.58,189.32Z" transform="translate(560.89 -164.51)"/><path class="cls-7" d="M-216.29,178.7a30.93,30.93,0,0,0-2.91-1.16,31.09,31.09,0,0,0-3.17-.91,13.4,13.4,0,0,0-2.84-.37h-.57l-.48.3a12.39,12.39,0,0,0-2.58,2.43,46.92,46.92,0,0,0-3,4c-1.06,1.56-2.15,3.28-3.25,5.11-.9,1.5-1.76,3-2.56,4.56h-2.92a29.45,29.45,0,0,1-4.39-.35l-2.31-.36v2.34a17.74,17.74,0,0,0,.42,3.54,7.31,7.31,0,0,0,1.27,3.28l.6.72h3.33c-.78,2-1.53,4.07-2.22,6.11-1,3-1.91,5.85-2.66,8.57s-1.37,5.33-1.79,7.66a36.24,36.24,0,0,0-.64,6,7.94,7.94,0,0,0,1.59,4.58,15.63,15.63,0,0,0,3.6,3.62,21.45,21.45,0,0,0,4.72,2.59,14.54,14.54,0,0,0,5.44,1.09h.12l.12,0a9.61,9.61,0,0,0,2.9-1,32.13,32.13,0,0,0,3.33-2c1.11-.75,2.15-1.53,3.11-2.31a11.77,11.77,0,0,0,2.32-2.39l.44-.66-.13-.79a5.88,5.88,0,0,0-1-2.19l-1.22-1.82-1.71,1.38a15.46,15.46,0,0,1-4,2.33,19.54,19.54,0,0,1-4.56,1.24c-.51-.13-1.14-.54-1.14-2.59a33.82,33.82,0,0,1,.67-6.22,74.44,74.44,0,0,1,1.92-7.61c.83-2.69,1.85-5.53,3-8.45,1-2.56,2.25-5.17,3.56-7.77a31.79,31.79,0,0,0,10.68-1.9l1.28-.5v-1.37a5.9,5.9,0,0,0-.43-2.2,5.67,5.67,0,0,0-1.19-1.84l-.71-.71-1,.14a26.26,26.26,0,0,1-3.62.26h-.24c.86-1.38,1.69-2.67,2.47-3.84,1.3-2,2.9-4.13,4.74-6.45l1-1.27-1-1.25A6.62,6.62,0,0,0-216.29,178.7Z" transform="translate(560.89 -164.51)"/><path class="cls-8" d="M-172.16,177.72H-162a40.11,40.11,0,0,1,4.61.27l2.66.31-.46-2.64a22,22,0,0,0-2.56-7.59,7.34,7.34,0,0,0-6.74-3.56,55.15,55.15,0,0,0-5.69.53c-2.86.34-6.13.7-9.74,1.07a112.45,112.45,0,0,1-11.4.56h-10.86c-2.08,0-3.92,0-5.47-.13a17.45,17.45,0,0,1-3.22-.39l-1.58-.42-.72,1.46a9.49,9.49,0,0,0-.78,2.24,10.12,10.12,0,0,0-.28,2.23,9.18,9.18,0,0,0,2.57,6.52,9.6,9.6,0,0,0,7.23,2.73c1.88,0,4.05-.11,6.43-.33,1.47-.14,3-.3,4.57-.47-.17.61-.36,1.24-.56,1.89-.52,1.72-1.11,3.53-1.76,5.37s-1.32,3.76-2,5.67-1.35,3.75-2,5.49q-2.55,7.07-4.52,12.6c-1.32,3.72-2.48,7.07-3.44,10s-1.83,5.54-2.55,7.84-1.35,4.46-1.86,6.44l-.21.82.44.72c3.13,5.14,7.14,8.12,11.94,8.83l1.94.29.32-1.94c.43-2.56.93-5.26,1.5-8s1.22-5.63,2-8.62,1.68-6.27,2.71-9.78,2.24-7.35,3.6-11.45c.67-2.08,1.49-4.49,2.43-7.15s1.92-5.35,2.94-8,2.07-5.26,3.12-7.7c.86-2,1.66-3.81,2.4-5.38C-175.37,177.8-173.75,177.72-172.16,177.72Z" transform="translate(560.89 -164.51)"/><path class="cls-9" d="M-142.29,225.33l-1.07-1.22a20.82,20.82,0,0,0-1.76-1.76l-1.46-1.32-1.34,1.43c-1,1-2.12,2.21-3.39,3.48a35,35,0,0,1-3.91,3.38,23.8,23.8,0,0,1-4.3,2.56,9.62,9.62,0,0,1-4.14,1,1.25,1.25,0,0,1-.88-.24,2.86,2.86,0,0,1-.75-1.07,7.83,7.83,0,0,1-.52-2,16,16,0,0,1-.17-2.25c0-.37,0-.72,0-1.06a83.48,83.48,0,0,0,9.56-4.53,37.09,37.09,0,0,0,8.09-6,23.84,23.84,0,0,0,5.28-8,34.3,34.3,0,0,0,2.21-10.62l.05-.77-.47-.6c-2.83-3.6-6-5.66-9.4-6.1l-.26,0a17.21,17.21,0,0,0-7.06,1.58,29.15,29.15,0,0,0-6.57,4.14,39.48,39.48,0,0,0-5.84,6,46.52,46.52,0,0,0-4.72,7.31,41.8,41.8,0,0,0-3.16,8.11,32.25,32.25,0,0,0-1.15,8.37,15.82,15.82,0,0,0,4.14,11c2.73,3,6.55,4.83,11.35,5.39l.34,0,.34-.08a28.38,28.38,0,0,0,10.28-5.08,47.63,47.63,0,0,0,9.67-9.76Zm-13.83-14.63a38.17,38.17,0,0,1-7.47,6.28c.41-1,.85-1.92,1.33-2.84a34.34,34.34,0,0,1,4.12-6.21,20.48,20.48,0,0,1,4.65-4.11,17.11,17.11,0,0,1,1.77-.95A18.27,18.27,0,0,1-156.12,210.7Z" transform="translate(560.89 -164.51)"/><path class="cls-10" d="M-103.71,194.25a35.52,35.52,0,0,0-3.19-3.64,39.53,39.53,0,0,0-3.61-3.22,10.26,10.26,0,0,0-3.48-2l-.48-.14-.49.12a16.14,16.14,0,0,0-5.36,2.36,19.48,19.48,0,0,0-4.4,4,21.07,21.07,0,0,0-3,5.11,15.06,15.06,0,0,0-1.19,5.81,20.1,20.1,0,0,0,.52,4.46c.32,1.36.65,2.75,1,4.17s.66,2.84,1,4.33a19.78,19.78,0,0,1,.34,2.31,20.4,20.4,0,0,0-6.38,1.64,22.66,22.66,0,0,0-6.69,4.47,20.93,20.93,0,0,0-4.51,6.37,18.27,18.27,0,0,0-1.69,7.7v.28l.07.27a10.18,10.18,0,0,0,1.64,3.23,14.86,14.86,0,0,0,2.55,2.66,14.51,14.51,0,0,0,3.1,2,9.81,9.81,0,0,0,3.42.94h.17l.17,0c5.57-.55,10-2.63,13.18-6.19s4.79-8.26,4.79-14c0-.8,0-1.47,0-2,0-.38,0-.76,0-1.13.28-.1.7-.24,1.36-.41.83-.21,1.94-.47,3.35-.78l.57-.12.42-.41a3.57,3.57,0,0,0,1-2.64,3.57,3.57,0,0,0-.3-1.63l-.55-1.11h-5.91c.06-5.32.66-9.39,1.81-12.1,1.31-3.09,2.85-3.44,3.88-3.43a1.86,1.86,0,0,1,.26,1.08,2.49,2.49,0,0,1-.14.72c-.15.47-.31.93-.48,1.4l-.51,1.34a4.43,4.43,0,0,0-.37,1.62l0,.28a3.34,3.34,0,0,0,3,3.12h.18a4.12,4.12,0,0,0,3.15-1.77,15.77,15.77,0,0,0,1.85-3,22.29,22.29,0,0,0,1.4-3.83,20.78,20.78,0,0,0,.67-4.12l0-.3-.08-.29A10.35,10.35,0,0,0-103.71,194.25Zm-29.86,40.82a21.23,21.23,0,0,1,3-3.83,22.76,22.76,0,0,1,3.88-3.19l.67-.41a13.09,13.09,0,0,1-.4,1.31,19.36,19.36,0,0,1-2.17,4.34,18.49,18.49,0,0,1-3.18,3.65,14.81,14.81,0,0,1-2.57,1.83,1.74,1.74,0,0,1-.26-1A5.49,5.49,0,0,1-133.57,235.07Z" transform="translate(560.89 -164.51)"/><path class="cls-11" d="M-65.49,182.88l1-1.27-1-1.25a6.71,6.71,0,0,0-2.39-1.66,30.12,30.12,0,0,0-2.92-1.16,30.37,30.37,0,0,0-3.17-.91,13.31,13.31,0,0,0-2.83-.37h-.57l-.48.3A11.92,11.92,0,0,0-80.46,179a46.92,46.92,0,0,0-3.05,4c-1.06,1.56-2.16,3.28-3.26,5.11-.9,1.5-1.76,3-2.56,4.56h-2.91a29.58,29.58,0,0,1-4.4-.35l-2.3-.36v2.34a17.74,17.74,0,0,0,.42,3.54,7.19,7.19,0,0,0,1.27,3.28l.6.72h3.33q-1.19,3-2.23,6.11c-1,3-1.9,5.85-2.66,8.57s-1.37,5.33-1.78,7.66a35.21,35.21,0,0,0-.64,6A7.93,7.93,0,0,0-99,234.84a15.83,15.83,0,0,0,3.6,3.62,21.68,21.68,0,0,0,4.72,2.59,14.62,14.62,0,0,0,5.44,1.09h.13l.12,0a9.61,9.61,0,0,0,2.9-1,31,31,0,0,0,3.32-2c1.11-.75,2.16-1.53,3.12-2.31a11.41,11.41,0,0,0,2.31-2.39l.45-.66-.13-.79a5.76,5.76,0,0,0-1-2.19L-75.26,229l-1.7,1.38a15.8,15.8,0,0,1-4,2.33,19.81,19.81,0,0,1-4.56,1.24c-.51-.13-1.14-.54-1.14-2.59a33,33,0,0,1,.67-6.22,71.91,71.91,0,0,1,1.92-7.61c.82-2.69,1.84-5.53,3-8.45,1.05-2.56,2.24-5.17,3.56-7.77a31.73,31.73,0,0,0,10.67-1.9l1.28-.5v-1.37a5.89,5.89,0,0,0-.42-2.2,5.67,5.67,0,0,0-1.19-1.84l-.71-.71-1,.14a26.11,26.11,0,0,1-3.61.26h-.24c.86-1.38,1.68-2.67,2.47-3.84C-68.93,187.37-67.34,185.2-65.49,182.88Z" transform="translate(560.89 -164.51)"/></svg>